<mxfile host="Electron" agent="Mozilla/5.0 (Windows NT 10.0; Win64; x64) AppleWebKit/537.36 (KHTML, like Gecko) draw.io/28.0.6 Chrome/138.0.7204.100 Electron/37.2.3 Safari/537.36" version="28.0.6">
  <diagram name="Page-1" id="_WSfgSZ_cIhnFwnCxr_N">
    <mxGraphModel dx="1426" dy="841" grid="1" gridSize="10" guides="1" tooltips="1" connect="1" arrows="1" fold="1" page="1" pageScale="1" pageWidth="827" pageHeight="1169" math="0" shadow="0">
      <root>
        <mxCell id="0" />
        <mxCell id="1" parent="0" />
        <mxCell id="McU2MiiB_HoolWuIlnbs-2" value="" style="rounded=0;whiteSpace=wrap;html=1;strokeColor=none;" vertex="1" parent="1">
          <mxGeometry x="160" y="30" width="410" height="530" as="geometry" />
        </mxCell>
        <mxCell id="McU2MiiB_HoolWuIlnbs-1" value="" style="rounded=0;whiteSpace=wrap;html=1;fillColor=#f5f5f5;fontColor=#333333;strokeColor=#666666;" vertex="1" parent="1">
          <mxGeometry x="170" y="350" width="390" height="200" as="geometry" />
        </mxCell>
        <mxCell id="EH-F7nRPDrJr5lyOdiNh-1" value="Remote Service" style="shape=umlFrame;whiteSpace=wrap;html=1;pointerEvents=0;fontSize=12;fontStyle=1" parent="1" vertex="1">
          <mxGeometry x="170" y="40" width="390" height="240" as="geometry" />
        </mxCell>
        <mxCell id="EH-F7nRPDrJr5lyOdiNh-2" value="User Device" style="shape=umlFrame;whiteSpace=wrap;html=1;pointerEvents=0;fontStyle=1;fontSize=13;" parent="1" vertex="1">
          <mxGeometry x="170" y="350" width="390" height="200" as="geometry" />
        </mxCell>
        <mxCell id="1GF-MyYvqzn87O7zuOC0-7" style="edgeStyle=orthogonalEdgeStyle;rounded=0;orthogonalLoop=1;jettySize=auto;html=1;exitX=0.25;exitY=1;exitDx=0;exitDy=0;entryX=0.25;entryY=0;entryDx=0;entryDy=0;" parent="1" source="1GF-MyYvqzn87O7zuOC0-5" target="1GF-MyYvqzn87O7zuOC0-6" edge="1">
          <mxGeometry relative="1" as="geometry" />
        </mxCell>
        <mxCell id="1GF-MyYvqzn87O7zuOC0-10" style="edgeStyle=orthogonalEdgeStyle;rounded=0;orthogonalLoop=1;jettySize=auto;html=1;exitX=1;exitY=0.5;exitDx=0;exitDy=0;entryX=0;entryY=0.5;entryDx=0;entryDy=0;" parent="1" source="1GF-MyYvqzn87O7zuOC0-5" target="1GF-MyYvqzn87O7zuOC0-9" edge="1">
          <mxGeometry relative="1" as="geometry" />
        </mxCell>
        <mxCell id="1GF-MyYvqzn87O7zuOC0-5" value="Shared Room" style="html=1;whiteSpace=wrap;fontSize=16;fillColor=#dae8fc;strokeColor=#6c8ebf;" parent="1" vertex="1">
          <mxGeometry x="245" y="80" width="120" height="50" as="geometry" />
        </mxCell>
        <mxCell id="1GF-MyYvqzn87O7zuOC0-8" style="edgeStyle=orthogonalEdgeStyle;rounded=0;orthogonalLoop=1;jettySize=auto;html=1;exitX=0.75;exitY=0;exitDx=0;exitDy=0;entryX=0.75;entryY=1;entryDx=0;entryDy=0;" parent="1" source="1GF-MyYvqzn87O7zuOC0-6" target="1GF-MyYvqzn87O7zuOC0-5" edge="1">
          <mxGeometry relative="1" as="geometry" />
        </mxCell>
        <mxCell id="1GF-MyYvqzn87O7zuOC0-17" style="edgeStyle=orthogonalEdgeStyle;rounded=0;orthogonalLoop=1;jettySize=auto;html=1;exitX=0.25;exitY=1;exitDx=0;exitDy=0;entryX=0.25;entryY=0;entryDx=0;entryDy=0;" parent="1" source="1GF-MyYvqzn87O7zuOC0-6" target="1GF-MyYvqzn87O7zuOC0-11" edge="1">
          <mxGeometry relative="1" as="geometry" />
        </mxCell>
        <mxCell id="1GF-MyYvqzn87O7zuOC0-6" value="Device&lt;div&gt;Interface&lt;/div&gt;" style="html=1;whiteSpace=wrap;fontSize=16;fillColor=#dae8fc;strokeColor=#6c8ebf;" parent="1" vertex="1">
          <mxGeometry x="245" y="180" width="120" height="50" as="geometry" />
        </mxCell>
        <mxCell id="1GF-MyYvqzn87O7zuOC0-9" value="Shared&lt;div&gt;Data&lt;/div&gt;" style="ellipse;whiteSpace=wrap;html=1;aspect=fixed;fontSize=17;" parent="1" vertex="1">
          <mxGeometry x="450" y="65" width="80" height="80" as="geometry" />
        </mxCell>
        <mxCell id="1GF-MyYvqzn87O7zuOC0-14" style="edgeStyle=orthogonalEdgeStyle;rounded=0;orthogonalLoop=1;jettySize=auto;html=1;exitX=0.25;exitY=1;exitDx=0;exitDy=0;entryX=0.25;entryY=0;entryDx=0;entryDy=0;" parent="1" source="1GF-MyYvqzn87O7zuOC0-11" target="1GF-MyYvqzn87O7zuOC0-12" edge="1">
          <mxGeometry relative="1" as="geometry" />
        </mxCell>
        <mxCell id="1GF-MyYvqzn87O7zuOC0-16" style="edgeStyle=orthogonalEdgeStyle;rounded=0;orthogonalLoop=1;jettySize=auto;html=1;exitX=1;exitY=0.5;exitDx=0;exitDy=0;entryX=0;entryY=0.5;entryDx=0;entryDy=0;" parent="1" source="1GF-MyYvqzn87O7zuOC0-11" target="1GF-MyYvqzn87O7zuOC0-13" edge="1">
          <mxGeometry relative="1" as="geometry" />
        </mxCell>
        <mxCell id="1GF-MyYvqzn87O7zuOC0-18" style="edgeStyle=orthogonalEdgeStyle;rounded=0;orthogonalLoop=1;jettySize=auto;html=1;exitX=0.75;exitY=0;exitDx=0;exitDy=0;entryX=0.75;entryY=1;entryDx=0;entryDy=0;" parent="1" source="1GF-MyYvqzn87O7zuOC0-11" target="1GF-MyYvqzn87O7zuOC0-6" edge="1">
          <mxGeometry relative="1" as="geometry" />
        </mxCell>
        <mxCell id="1GF-MyYvqzn87O7zuOC0-11" value="Local&lt;div&gt;Interaction&lt;/div&gt;" style="html=1;whiteSpace=wrap;fontSize=16;fillColor=#dae8fc;strokeColor=#6c8ebf;" parent="1" vertex="1">
          <mxGeometry x="245" y="380" width="120" height="50" as="geometry" />
        </mxCell>
        <mxCell id="1GF-MyYvqzn87O7zuOC0-15" style="edgeStyle=orthogonalEdgeStyle;rounded=0;orthogonalLoop=1;jettySize=auto;html=1;exitX=0.75;exitY=0;exitDx=0;exitDy=0;entryX=0.75;entryY=1;entryDx=0;entryDy=0;" parent="1" source="1GF-MyYvqzn87O7zuOC0-12" target="1GF-MyYvqzn87O7zuOC0-11" edge="1">
          <mxGeometry relative="1" as="geometry" />
        </mxCell>
        <mxCell id="1GF-MyYvqzn87O7zuOC0-12" value="Local Device&lt;div&gt;Configuration&lt;/div&gt;" style="html=1;whiteSpace=wrap;fontSize=16;fillColor=#dae8fc;strokeColor=#6c8ebf;" parent="1" vertex="1">
          <mxGeometry x="245" y="470" width="120" height="50" as="geometry" />
        </mxCell>
        <mxCell id="1GF-MyYvqzn87O7zuOC0-13" value="Local&lt;br&gt;&lt;div&gt;Data&lt;/div&gt;" style="ellipse;whiteSpace=wrap;html=1;aspect=fixed;fontSize=17;" parent="1" vertex="1">
          <mxGeometry x="450" y="365" width="80" height="80" as="geometry" />
        </mxCell>
      </root>
    </mxGraphModel>
  </diagram>
</mxfile>
